<svg width="33" height="46" viewBox="0 0 33 46" fill="none" xmlns="http://www.w3.org/2000/svg">
<path d="M16.0417 10.3125C17.5611 10.3125 19.0184 10.9161 20.0928 11.9905C21.1672 13.065 21.7708 14.5222 21.7708 16.0417C21.7708 16.794 21.6226 17.539 21.3347 18.2341C21.0468 18.9292 20.6248 19.5608 20.0928 20.0928C19.5608 20.6248 18.9292 21.0468 18.2341 21.3347C17.539 21.6226 16.794 21.7708 16.0417 21.7708C14.5222 21.7708 13.065 21.1672 11.9905 20.0928C10.9161 19.0184 10.3125 17.5611 10.3125 16.0417C10.3125 14.5222 10.9161 13.065 11.9905 11.9905C13.065 10.9161 14.5222 10.3125 16.0417 10.3125ZM16.0417 0C20.2962 0 24.3764 1.6901 27.3848 4.69849C30.3932 7.70689 32.0833 11.7872 32.0833 16.0417C32.0833 28.0729 16.0417 45.8333 16.0417 45.8333C16.0417 45.8333 0 28.0729 0 16.0417C0 11.7872 1.6901 7.70689 4.69849 4.69849C7.70689 1.6901 11.7872 0 16.0417 0ZM16.0417 4.58333C13.0027 4.58333 10.0883 5.79055 7.9394 7.9394C5.79055 10.0883 4.58333 13.0027 4.58333 16.0417C4.58333 18.3333 4.58333 22.9167 16.0417 38.2937C27.5 22.9167 27.5 18.3333 27.5 16.0417C27.5 13.0027 26.2928 10.0883 24.1439 7.9394C21.9951 5.79055 19.0806 4.58333 16.0417 4.58333Z" fill="#F0C930"/>
</svg>
