<svg width="22" height="22" viewBox="0 0 22 22" fill="none" xmlns="http://www.w3.org/2000/svg">
<path d="M11 21C16.5228 21 21 16.5228 21 11C21 5.47715 16.5228 1 11 1C5.47715 1 1 5.47715 1 11C1 16.5228 5.47715 21 11 21Z" stroke="white" stroke-width="2" stroke-linecap="round" stroke-linejoin="round"/>
<path d="M13.83 13.83C13.2704 14.389 12.5577 14.7695 11.7819 14.9235C11.0061 15.0774 10.202 14.998 9.47138 14.6951C8.74074 14.3922 8.11629 13.8795 7.67696 13.2218C7.23763 12.5641 7.00314 11.7909 7.00314 11C7.00314 10.2091 7.23763 9.43588 7.67696 8.77818C8.11629 8.12048 8.74074 7.60779 9.47138 7.30491C10.202 7.00203 11.0061 6.92256 11.7819 7.07654C12.5577 7.23052 13.2704 7.61104 13.83 8.17" stroke="white" stroke-width="2" stroke-linecap="round" stroke-linejoin="round"/>
</svg>
