<svg width="42" height="42" viewBox="0 0 42 42" fill="none" xmlns="http://www.w3.org/2000/svg">
<path d="M37.1334 28.0729L31.3126 27.4083C30.6282 27.328 29.9344 27.4037 29.2835 27.63C28.6325 27.8562 28.0413 28.227 27.5543 28.7146L23.3376 32.9313C16.8324 29.6219 11.5448 24.3343 8.2355 17.8292L12.4751 13.5896C13.4605 12.6042 13.9418 11.2292 13.7813 9.83126L13.1168 4.05626C12.9873 2.93813 12.4509 1.90673 11.6099 1.15866C10.7688 0.410589 9.68193 -0.0018335 8.55634 6.12781e-06H4.59175C2.00217 6.12781e-06 -0.151998 2.15417 0.00841839 4.74376C1.223 24.3146 16.8751 39.9438 36.423 41.1583C39.0126 41.3188 41.1668 39.1646 41.1668 36.575V32.6104C41.1897 30.2958 39.448 28.3479 37.1334 28.0729Z" fill="#EFC930"/>
</svg>
